<svg width="61" height="61" viewBox="0 0 61 61" fill="none" xmlns="http://www.w3.org/2000/svg">
<g clip-path="url(#clip0_39_267)">
<path d="M30.3461 0C26.361 0 22.4149 0.804413 18.7332 2.36731C15.0514 3.93021 11.7061 6.22098 8.88817 9.10884C3.19717 14.9411 0 22.8514 0 31.0995C0 44.8455 8.70933 56.5078 20.7567 60.644C22.274 60.8928 22.7596 59.9288 22.7596 59.0891C22.7596 58.3738 22.7596 56.4145 22.7596 53.8333C14.3537 55.6992 12.5633 49.6659 12.5633 49.6659C11.1674 46.0584 9.19487 45.0943 9.19487 45.0943C6.43338 43.1661 9.40729 43.2283 9.40729 43.2283C12.4419 43.446 14.0502 46.4316 14.0502 46.4316C16.6904 51.1587 21.1512 49.7592 22.881 49.0128C23.1541 46.9914 23.9431 45.623 24.7928 44.8455C18.0559 44.068 10.9853 41.3934 10.9853 29.5445C10.9853 26.0925 12.1384 23.3246 14.1109 21.1166C13.8075 20.3391 12.7454 17.1047 14.4144 12.9063C14.4144 12.9063 16.9635 12.0666 22.7596 16.0784C25.1569 15.3943 27.7667 15.0522 30.3461 15.0522C32.9255 15.0522 35.5353 15.3943 37.9326 16.0784C43.7287 12.0666 46.2778 12.9063 46.2778 12.9063C47.9468 17.1047 46.8847 20.3391 46.5813 21.1166C48.5538 23.3246 49.7069 26.0925 49.7069 29.5445C49.7069 41.4245 42.6059 44.0369 35.8388 44.8144C36.9312 45.7785 37.9326 47.6755 37.9326 50.5678C37.9326 54.7351 37.9326 58.0939 37.9326 59.0891C37.9326 59.9288 38.4182 60.9239 39.9658 60.644C52.0132 56.4767 60.6922 44.8455 60.6922 31.0995C60.6922 27.0155 59.9073 22.9714 58.3823 19.1982C56.8572 15.4251 54.6219 11.9967 51.804 9.10884C48.9861 6.22098 45.6408 3.93021 41.9591 2.36731C38.2773 0.804413 34.3312 0 30.3461 0Z" fill="black"/>
</g>
<defs>
<clipPath id="clip0_39_267">
<rect width="60.6922" height="60.6922" fill="white"/>
</clipPath>
</defs>
</svg>
