<svg width="61" height="61" viewBox="0 0 61 61" fill="none" xmlns="http://www.w3.org/2000/svg">
<path d="M30.3461 0C47.1064 0 60.6922 13.5858 60.6922 30.3461C60.6922 47.1064 47.1064 60.6922 30.3461 60.6922C13.5858 60.6922 0 47.1064 0 30.3461C0 13.5858 13.5858 0 30.3461 0ZM40.8142 42.7154C41.3723 41.0029 43.9873 23.9352 44.3106 20.572C44.4082 19.5534 44.0863 18.8766 43.4556 18.5745C42.693 18.2077 41.5636 18.3911 40.2535 18.8634C38.4564 19.5112 15.4831 29.2655 14.1558 29.8302C12.8971 30.3646 11.707 30.9478 11.707 31.7922C11.707 32.3859 12.0593 32.7197 13.0304 33.0667C14.041 33.4269 16.5861 34.1987 18.0889 34.613C19.5363 35.0128 21.1842 34.6658 22.1078 34.0919C23.0868 33.4836 34.3848 25.9235 35.1962 25.2612C36.0063 24.5988 36.6528 25.4472 35.9905 26.1108C35.3281 26.7732 27.5727 34.3003 26.5502 35.3427C25.3087 36.608 26.19 37.9194 27.0226 38.4446C27.9738 39.0436 34.8149 43.6324 35.8453 44.3686C36.8758 45.1049 37.9208 45.4387 38.8773 45.4387C39.8339 45.4387 40.3379 44.1787 40.8142 42.7154Z" fill="#53CBFF"/>
</svg>
