<svg width="285" height="285" viewBox="0 0 285 285" fill="none" xmlns="http://www.w3.org/2000/svg">
<g clip-path="url(#clip0_39_640)">
<path d="M0 30.3461C0 13.5864 13.5864 0 30.3461 0H254.654C271.414 0 285 13.5864 285 30.3461V254.654C285 271.414 271.414 285 254.654 285H30.3461C13.5864 285 0 271.414 0 254.654V30.3461Z" fill="white"/>
<g clip-path="url(#clip1_39_640)">
<path d="M187.326 43.7859L182.366 50.8121L174.417 53.0357L180.821 57.7048L182.384 65.8426L187.345 58.8164L195.293 56.5928L188.889 51.9237" fill="#4625FF"/>
<path d="M197.652 28.9217C201.987 31.896 202.015 36.931 198.043 42.8531C194.099 48.7331 186.315 55.3049 175.602 61.1511C164.888 66.9975 153.329 70.9804 143.331 72.7076C133.263 74.4472 125.09 73.8565 120.755 70.8822C116.419 67.9078 116.391 62.8729 120.363 56.9508C124.307 51.0707 132.092 44.4986 142.806 38.6522C153.52 32.806 165.078 28.8235 175.075 27.0962C185.144 25.3567 193.316 25.9473 197.652 28.9217Z" stroke="#4625FF" stroke-width="1.34043"/>
<path d="M43.0829 45.9847L55.5451 63.3356H48.0517L38.9155 50.4326L34.9083 54.7203V63.3356H29.098V34.0033H34.9083V47.6677L47.09 34.0033H54.343L43.0829 45.9847ZM61.0825 39.9339C60.2009 39.9339 59.4262 39.6 58.7583 38.9321C58.1172 38.2376 57.7966 37.4361 57.7966 36.5278C57.7966 35.5928 58.1172 34.7914 58.7583 34.1236C59.3995 33.4557 60.1742 33.1218 61.0825 33.1218C61.9908 33.1218 62.7788 33.4691 63.4467 34.1636C64.1145 34.8315 64.4485 35.6196 64.4485 36.5278C64.4485 37.4361 64.1145 38.2376 63.4467 38.9321C62.7788 39.6 61.9908 39.9339 61.0825 39.9339ZM63.9275 63.3356H58.3576V42.5786H63.9275V63.3356ZM74.6498 63.3356H69.0798V32.8413H74.6498V63.3356ZM78.5999 52.9571C78.5999 50.7933 79.0808 48.8832 80.0425 47.2269C81.0309 45.5706 82.3399 44.3017 83.9695 43.4201C85.5991 42.5118 87.3622 42.0577 89.2589 42.0577C91.1289 42.0577 92.8654 42.5118 94.4682 43.4201C96.0978 44.3017 97.3934 45.5706 98.3552 47.2269C99.3436 48.8832 99.8378 50.7933 99.8378 52.9571C99.8378 55.121 99.3436 57.0311 98.3552 58.6873C97.3934 60.3436 96.0978 61.6126 94.4682 62.4941C92.8654 63.3757 91.1289 63.8165 89.2589 63.8165C87.3622 63.8165 85.5991 63.3757 83.9695 62.4941C82.3399 61.6126 81.0309 60.3436 80.0425 58.6873C79.0808 57.0311 78.5999 55.121 78.5999 52.9571ZM84.3702 52.9571C84.3702 54.8004 84.8244 56.2697 85.7327 57.365C86.6677 58.4336 87.8297 58.9678 89.2189 58.9678C90.608 58.9678 91.7567 58.4336 92.665 57.365C93.5733 56.2697 94.0274 54.8004 94.0274 52.9571C94.0274 51.1138 93.5733 49.6446 92.665 48.5493C91.7567 47.454 90.608 46.9063 89.2189 46.9063C87.8297 46.9063 86.6677 47.454 85.7327 48.5493C84.8244 49.6446 84.3702 51.1138 84.3702 52.9571ZM116.331 50.8734L124.706 63.3356H118.014L112.564 55.0809L109.438 58.5271V63.3356H103.868V32.8413H109.438V51.755L117.332 42.5786H123.784L116.331 50.8734ZM129.877 39.9339C128.995 39.9339 128.221 39.6 127.553 38.9321C126.912 38.2376 126.591 37.4361 126.591 36.5278C126.591 35.5928 126.912 34.7914 127.553 34.1236C128.194 33.4557 128.969 33.1218 129.877 33.1218C130.785 33.1218 131.573 33.4691 132.241 34.1636C132.909 34.8315 133.243 35.6196 133.243 36.5278C133.243 37.4361 132.909 38.2376 132.241 38.9321C131.573 39.6 130.785 39.9339 129.877 39.9339ZM132.722 63.3356H127.152V42.5786H132.722V63.3356ZM152.3 62.1335C150.938 63.2555 149.041 63.8165 146.61 63.8165C144.366 63.8165 142.549 63.2288 141.16 62.0533C139.798 60.8512 139.117 58.7141 139.117 55.6419V47.267H135.43V42.5786H139.117V36.2073H144.687V42.5786H150.938V47.267H144.687V54.7203C144.687 56.1094 144.927 57.1646 145.408 57.8859C145.889 58.6072 146.663 58.9678 147.732 58.9678C148.667 58.9678 149.549 58.6873 150.377 58.1263L152.3 62.1335ZM163.683 42.0577C165.526 42.0577 167.156 42.4718 168.572 43.2999C170.014 44.1013 171.123 45.2501 171.898 46.7461C172.699 48.2153 173.1 49.9117 173.1 51.8351C173.1 52.69 173.02 53.5582 172.859 54.4398H159.075C159.315 55.9892 159.876 57.1646 160.758 57.9661C161.639 58.7408 162.735 59.1281 164.044 59.1281C164.979 59.1281 165.807 58.9278 166.528 58.5271C167.276 58.0996 167.85 57.4718 168.251 56.6437L172.338 59.048C171.777 60.5707 170.695 61.7461 169.093 62.5743C167.516 63.4024 165.753 63.8165 163.803 63.8165C161.933 63.8165 160.197 63.4024 158.594 62.5743C156.991 61.7461 155.695 60.5039 154.707 58.8476C153.745 57.1913 153.264 55.2011 153.264 52.877C153.264 50.5796 153.745 48.6161 154.707 46.9865C155.695 45.3569 156.978 44.1281 158.554 43.2999C160.13 42.4718 161.84 42.0577 163.683 42.0577ZM163.523 46.5858C162.427 46.5858 161.492 46.9331 160.718 47.6276C159.943 48.3222 159.422 49.2973 159.155 50.5528H167.41C167.303 49.2706 166.889 48.2955 166.167 47.6276C165.473 46.9331 164.591 46.5858 163.523 46.5858Z" fill="black"/>
</g>
<path d="M52.16 108.808C55.808 110.28 57.632 112.936 57.632 116.776C57.632 119.976 56.432 122.488 54.032 124.312C51.632 126.104 48.336 127 44.144 127H29.456V91.864H42.944C46.72 91.864 49.824 92.712 52.256 94.408C54.688 96.104 55.904 98.568 55.904 101.8C55.904 104.936 54.656 107.272 52.16 108.808ZM37.472 98.92V105.832H42.272C43.84 105.832 45.088 105.496 46.016 104.824C46.944 104.152 47.408 103.256 47.408 102.136C47.408 101.08 46.96 100.28 46.064 99.736C45.168 99.192 43.904 98.92 42.272 98.92H37.472ZM43.664 119.896C45.392 119.896 46.736 119.592 47.696 118.984C48.656 118.344 49.136 117.448 49.136 116.296C49.136 115.144 48.64 114.248 47.648 113.608C46.688 112.936 45.344 112.6 43.616 112.6H37.472V119.896H43.664ZM62.7373 91.864H70.9453V119.704H86.3533V127H62.7373V91.864ZM87.5896 109.384C87.5896 105.672 88.3416 102.44 89.8456 99.688C91.3816 96.936 93.4616 94.84 96.0856 93.4C98.7096 91.928 101.606 91.192 104.774 91.192C107.942 91.192 110.822 91.928 113.414 93.4C116.038 94.84 118.118 96.936 119.654 99.688C121.19 102.44 121.958 105.672 121.958 109.384C121.958 113.128 121.19 116.376 119.654 119.128C118.118 121.88 116.038 123.992 113.414 125.464C110.822 126.904 107.942 127.624 104.774 127.624C101.574 127.624 98.6616 126.904 96.0376 125.464C93.4456 123.992 91.3816 121.88 89.8456 119.128C88.3416 116.376 87.5896 113.128 87.5896 109.384ZM96.2776 109.384C96.2776 111.528 96.6296 113.416 97.3336 115.048C98.0696 116.68 99.0776 117.944 100.358 118.84C101.638 119.704 103.11 120.136 104.774 120.136C106.438 120.136 107.91 119.704 109.19 118.84C110.502 117.944 111.51 116.68 112.214 115.048C112.95 113.416 113.318 111.528 113.318 109.384C113.318 107.272 112.95 105.416 112.214 103.816C111.51 102.184 110.502 100.936 109.19 100.072C107.91 99.176 106.438 98.728 104.774 98.728C103.11 98.728 101.638 99.176 100.358 100.072C99.0776 100.936 98.0696 102.184 97.3336 103.816C96.6296 105.416 96.2776 107.272 96.2776 109.384ZM142.789 113.992V106.984H156.997V121.576C155.877 123.464 154.069 124.952 151.573 126.04C149.109 127.096 146.389 127.624 143.413 127.624C139.925 127.624 136.821 126.856 134.101 125.32C131.413 123.784 129.317 121.64 127.813 118.888C126.341 116.104 125.605 112.936 125.605 109.384C125.605 105.768 126.373 102.584 127.909 99.832C129.477 97.048 131.605 94.92 134.293 93.448C136.981 91.944 139.989 91.192 143.317 91.192C145.653 91.192 147.765 91.56 149.653 92.296C151.573 93.032 153.157 94.024 154.405 95.272C155.685 96.52 156.581 97.912 157.093 99.448L150.277 103.384C149.605 101.88 148.661 100.712 147.445 99.88C146.261 99.048 144.837 98.632 143.173 98.632C141.477 98.632 139.941 99.064 138.565 99.928C137.189 100.792 136.101 102.04 135.301 103.672C134.501 105.272 134.101 107.176 134.101 109.384C134.101 112.744 134.981 115.4 136.741 117.352C138.533 119.272 140.917 120.232 143.893 120.232C146.133 120.232 147.845 119.64 149.029 118.456V113.992H142.789Z" fill="black"/>
</g>
<defs>
<clipPath id="clip0_39_640">
<path d="M0 30.3461C0 13.5864 13.5864 0 30.3461 0H254.654C271.414 0 285 13.5864 285 30.3461V254.654C285 271.414 271.414 285 254.654 285H30.3461C13.5864 285 0 271.414 0 254.654V30.3461Z" fill="white"/>
</clipPath>
<clipPath id="clip1_39_640">
<rect width="187" height="49.7554" fill="white" transform="translate(19 25)"/>
</clipPath>
</defs>
</svg>
