<svg width="294" height="294" viewBox="0 0 294 294" fill="none" xmlns="http://www.w3.org/2000/svg">
<rect width="293.75" height="293.143" rx="30.3461" fill="white"/>
<path d="M58.1381 224.555H80.4534V250.424H72.0051V248.327H47.767V250.424H39.3769V226.536L35.8811 228.051L32.3852 221.408C35.1042 220.476 37.3183 219.466 39.0274 218.379C40.7753 217.291 42.1348 216.068 43.1059 214.708H33.3174V208.707H37.0464L32.6183 205.502C35.648 202.084 37.8232 198.744 39.1439 195.481L46.2522 196.588C45.8637 197.598 45.4559 198.569 45.0286 199.501H60.1774V205.619H52.7195C52.7195 206.551 52.6807 207.406 52.603 208.182V208.707H61.1679V214.708H52.6613C56.7786 216.65 59.789 218.165 61.6923 219.253L58.1381 224.555ZM62.9741 221.875V199.326H84.8233V221.875H62.9741ZM45.1451 208.707V208.474C45.2228 207.464 45.2617 206.512 45.2617 205.619H41.5327C40.6005 207.017 39.8625 208.046 39.3187 208.707H45.1451ZM70.4319 215.058H77.3654V205.852H70.4319V215.058ZM48.9906 219.952C47.5922 221.583 45.6501 223.118 43.1641 224.555H56.6233C54.5646 223.234 52.0204 221.7 48.9906 219.952ZM47.767 233.411H72.0051V230.673H47.767V233.411ZM47.767 239.121V241.976H72.0051V239.121H47.767ZM126.075 222.516C124.094 222.399 122.598 221.836 121.588 220.826C120.617 219.777 120.132 218.146 120.132 215.932V212.785L114.363 216.281L113.781 215.232C113.587 214.922 113.373 214.572 113.14 214.184C112.946 213.795 112.693 213.368 112.382 212.902C106.867 213.446 102.108 213.97 98.1076 214.475L94.7865 214.883L92.9803 215.116L90.9993 207.716C92.0481 207.483 92.8638 207.095 93.4464 206.551C94.4952 205.463 95.777 203.774 97.2919 201.482C98.8456 199.19 100.089 197.054 101.021 195.073L108.887 197.753C107.799 199.462 106.42 201.463 104.75 203.754C103.079 206.007 101.875 207.522 101.137 208.299C102.264 208.144 104.07 207.949 106.556 207.716L109.061 207.425L108.129 205.968C107.585 205.075 107.1 204.318 106.672 203.696L112.441 200.2C114.072 202.492 116.636 206.24 120.132 211.445V196.471H127.939V202.997C133.532 200.705 137.378 198.88 139.475 197.52L143.437 203.813C141.845 204.667 139.553 205.716 136.562 206.959C133.61 208.202 130.736 209.367 127.939 210.455V213.426C127.939 214.242 128.056 214.766 128.289 214.999C128.561 215.194 129.143 215.33 130.037 215.407C130.58 215.446 131.357 215.466 132.367 215.466C133.377 215.466 134.134 215.446 134.639 215.407C135.455 215.33 136.057 215.232 136.446 215.116C136.834 214.961 137.087 214.727 137.203 214.417C137.358 214.106 137.475 213.62 137.553 212.96C137.708 211.601 137.786 210.144 137.786 208.59L144.719 210.513C144.68 211.834 144.506 213.795 144.195 216.398C143.962 218.612 143.321 220.146 142.272 221.001C141.262 221.816 139.553 222.321 137.145 222.516C135.358 222.632 133.513 222.69 131.61 222.69C129.784 222.69 127.939 222.632 126.075 222.516ZM92.9803 250.133V217.039H117.451V244.015C117.451 246.385 116.946 247.997 115.937 248.851C114.965 249.706 113.295 250.133 110.926 250.133C108.284 250.133 106.401 250.036 105.274 249.842L104.225 242.966C105.973 243.238 107.488 243.374 108.77 243.374C109.12 243.374 109.372 243.199 109.527 242.85C109.722 242.5 109.819 241.879 109.819 240.985V240.053H100.496V250.133H92.9803ZM109.819 225.953V223.273H100.496V225.953H109.819ZM144.952 236.441C144.952 237.723 144.758 240.053 144.37 243.432C144.098 245.724 143.399 247.317 142.272 248.21C141.185 249.142 139.378 249.706 136.854 249.9C135.339 250.055 133.668 250.133 131.843 250.133C129.862 250.133 128.036 250.055 126.366 249.9C124.268 249.706 122.715 249.084 121.705 248.035C120.734 246.987 120.248 245.297 120.248 242.966V223.972H127.939V229.332C132.95 227.157 136.776 225.215 139.417 223.506L143.263 229.624C140.039 231.488 134.931 233.799 127.939 236.557V240.344C127.939 241.199 128.114 241.762 128.463 242.034C128.813 242.306 129.512 242.5 130.561 242.617C131.415 242.694 132.037 242.733 132.425 242.733C133.125 242.733 134.037 242.675 135.164 242.559C136.057 242.481 136.64 242.287 136.912 241.976C137.223 241.665 137.436 240.966 137.553 239.878C137.786 237.936 137.902 236.111 137.902 234.401L144.952 236.441ZM100.496 231.721V234.401H109.819V231.721H100.496ZM180.785 208.707H173.444V206.085H166.219V199.851H173.444V196.413H180.785V199.851H187.078V196.413H194.302V199.851H201.993V206.085H194.302V208.707H187.078V206.085H180.785V208.707ZM165.986 225.312L162.199 226.827V243.491C162.199 245.394 161.966 246.851 161.499 247.861C161.072 248.871 160.334 249.57 159.285 249.958C158.275 250.385 156.819 250.599 154.916 250.599C153.284 250.599 151.827 250.521 150.546 250.366L148.856 242.267C150.487 242.539 151.886 242.675 153.051 242.675C154.177 242.675 154.741 242.015 154.741 240.694V229.799C153.381 230.304 151.847 230.886 150.138 231.547L147.865 223.972C150.118 223.195 152.41 222.418 154.741 221.642V213.31H149.905V205.852H154.741V197.229H162.199V205.852H165.694V213.31H162.199V219.078L165.986 217.68V225.312ZM190.166 238.247C192.807 240.616 197.274 242.461 203.566 243.782L201.411 250.657C197.682 249.919 194.341 248.773 191.389 247.22C188.437 245.666 185.99 243.782 184.048 241.568C180.63 245.491 174.745 248.521 166.394 250.657L163.713 244.073C167.326 243.297 170.258 242.442 172.511 241.51C174.764 240.578 176.493 239.49 177.697 238.247H165.694V232.187H180.028C180.066 231.838 180.086 231.216 180.086 230.323H168.433V209.872H199.43V230.323H187.544C187.544 231.216 187.524 231.838 187.485 232.187H202.285V238.247H190.166ZM192.846 217.68V215.524H175.017V217.68H192.846ZM192.846 222.399H175.017V224.555H192.846V222.399ZM213.297 218.437L211.374 219.835L207.412 212.902C214.171 207.969 219.745 202.278 224.134 195.83L232.815 197.52C232.504 198.064 231.999 198.88 231.3 199.967H250.877V206.551C249.79 207.289 248.372 208.513 246.624 210.222H256.063V238.014H213.297V218.437ZM225.707 207.075L223.726 209.173L222.735 210.222H236.136C237.69 208.901 238.952 207.852 239.923 207.075H225.707ZM230.659 217.272H220.987V220.884H230.659V217.272ZM238.642 220.884H247.906V217.272H238.642V220.884ZM230.659 226.944H220.987V230.789H230.659V226.944ZM238.642 226.944V230.789H247.906V226.944H238.642ZM209.335 248.793V241.044H260.316V248.793H209.335Z" fill="url(#paint0_linear_39_367)"/>
<path d="M39.1402 47.1313V49.1281H33.2774V42.7979H48.2744L47.8071 40.3762L55.072 39.5265C55.1003 39.8098 55.2985 40.9002 55.6667 42.7979H69.9416V49.1281H64.0787V47.1313H39.1402ZM70.2389 56.0955L68.2847 55.4582V79.632H62.5917V78.145H40.7122V79.632H35.0192V55.7556L32.6826 56.3929L31.663 52.1869C38.772 50.3459 44.0401 48.7599 47.4672 47.4287L49.1666 51.4222C46.0511 52.4418 42.9922 53.4048 39.9899 54.3112H47.7221C48.2319 53.3199 48.6001 52.4843 48.8267 51.8046L54.8595 52.4418L54.0098 54.3112H64.461C61.0056 53.2915 57.621 52.3569 54.3072 51.5072L55.5818 47.6411C57.5077 48.1226 60.1418 48.8448 63.4839 49.8078C66.8543 50.7708 69.4742 51.5922 71.3435 52.2719L70.2389 56.0955ZM40.7122 58.6871V64.6774C43.3462 62.5248 45.2439 60.5281 46.4051 58.6871H40.7122ZM59.2779 73.8116H62.5917V58.6871H48.6993L51.1209 59.5368C51.0359 59.6501 50.951 59.7775 50.866 59.9191C50.781 60.0607 50.6677 60.2165 50.5261 60.3865H61.4446V64.2101C60.0285 65.7678 58.5557 67.099 57.0262 68.2036C59.0655 69.0816 60.5808 69.7472 61.5721 70.2004L59.2779 73.8116ZM40.7122 65.5271V73.8116H43.3887L41.7318 70.3278C44.3092 69.6764 46.4051 69.0533 48.0195 68.4585L46.5326 67.7788L48.6993 64.6349C49.5206 65.0314 50.8377 65.5979 52.6503 66.3343C53.6133 65.7678 54.6046 65.0739 55.6243 64.2526H47.4672C46.7875 64.9606 45.6829 66.0369 44.1534 67.4814L43.3037 68.2461L40.7122 65.5271ZM52.8203 70.7952C50.6394 71.8998 48.0054 72.9052 44.9181 73.8116H59.1505L52.8203 70.7952ZM77.6313 78.9947V42.9253H110.514V78.7823H104.354V75.5959H83.7915V78.9947H77.6313ZM83.7915 49.298V69.2657H104.354V49.298H83.7915ZM155.123 42.288C155.151 46.7064 155.052 51.9604 154.826 58.0498C154.599 64.1109 154.316 68.6851 153.976 71.7723C153.749 74.2647 153.098 76.0491 152.022 77.1254C150.945 78.23 149.161 78.8106 146.669 78.8672C144.743 78.9239 143.086 78.8248 141.698 78.5698L140.508 72.4946C141.981 72.7778 143.312 72.9194 144.502 72.9194C145.408 72.9194 146.088 72.8344 146.541 72.6645C146.994 72.4946 147.32 72.1688 147.518 71.6873C147.717 71.2059 147.872 70.4553 147.986 69.4357C148.241 66.9432 148.439 63.9127 148.58 60.344C148.722 56.7753 148.793 53.2774 148.793 49.8503V48.4908H143.015L142.888 52.2294L142.845 53.4615C142.732 57.8799 142.349 61.5194 141.698 64.38C141.075 67.2406 140.055 69.8322 138.639 72.1547C137.223 74.4772 135.169 77.0262 132.479 79.8019L127.296 75.511C129.562 73.4717 131.36 71.6024 132.691 69.903C128.953 72.0555 126.163 73.7691 124.322 75.0436L122.75 76.1057L119.266 70.9226C119.776 70.4128 120.116 69.9313 120.286 69.4782C120.484 69.025 120.583 68.4585 120.583 67.7788V57.2426L116.462 57.7949L115.867 51.5922L120.583 50.9974V40.3337H126.404V50.2326L131.247 49.5954L131.374 55.7556L126.404 56.4354V66.6742L131.544 63.4453L132.989 69.4782C134.32 67.6088 135.226 65.5271 135.708 63.2329C136.189 60.9388 136.543 57.5258 136.77 52.9941L136.94 48.4908H131.374V42.288H155.123ZM188.898 68.0337C189.89 69.3365 191.221 70.4978 192.892 71.5174C194.591 72.537 196.56 73.3584 198.797 73.9815L196.333 79.7169C191.377 78.0175 187.624 75.3693 185.075 71.7723C183.998 73.3867 182.455 74.8029 180.444 76.0208C178.433 77.2387 175.771 78.4424 172.457 79.632L169.398 74.024C172.513 73.0893 174.935 72.1547 176.663 71.22C178.419 70.2854 179.693 69.2232 180.486 68.0337H170.885V62.893H173.094V55.3308L171.352 52.9941H168.803V56.9027C169.483 56.6478 170.177 56.3504 170.885 56.0105L172.074 62.0858C170.46 62.6806 169.37 63.0913 168.803 63.3179V74.4913C168.803 76.4456 168.421 77.8051 167.656 78.5698C166.92 79.3346 165.603 79.7169 163.705 79.7169C162.77 79.7169 161.807 79.6744 160.816 79.5895L159.711 73.8116C160.504 73.9532 161.227 74.024 161.878 74.024C162.36 74.024 162.685 73.9107 162.855 73.6841C163.025 73.4575 163.11 73.061 163.11 72.4946V65.5271L159.881 66.7591L158.904 60.6414C159.584 60.4431 160.986 59.9474 163.11 59.1544V52.9941H159.881V47.1738H163.11V40.4187H168.803V47.1738H171.48V49.7228C173.151 48.1084 174.581 46.5082 175.771 44.9221C176.988 43.336 177.98 41.6508 178.744 39.8664L184.225 41.3109C184.083 41.7074 183.843 42.3022 183.503 43.0952H194.124V48.0659L191.065 51.8046H196.206V62.893H198.415V68.0337H188.898ZM187.071 48.3633H180.231C179.24 49.6379 178.235 50.7849 177.215 51.8046H183.885L187.071 48.3633ZM181.718 56.8602H178.49V62.893H181.718V56.8602ZM187.199 56.8602V62.893H190.938V56.8602H187.199ZM31.9604 104.991H71.1736V111.831H31.9604V104.991ZM91.5662 97.5561L89.8668 99.9777H92.7133V124.916C92.7133 126.474 92.43 127.55 91.8636 128.145C91.2971 128.768 90.3341 129.08 88.9746 129.08C88.3515 129.08 87.4735 129.023 86.3406 128.91L85.7033 125.893H82.3046V119.096H80.3078C80.2228 121.248 80.0245 123.118 79.713 124.704C79.4014 126.262 78.9058 127.933 78.226 129.717L73.5952 127.168C74.3033 125.299 74.8131 123.741 75.1247 122.495C75.4645 121.248 75.7053 119.776 75.8469 118.076C75.9885 116.348 76.0593 113.998 76.0593 111.024V104.141L73.6802 100.488C76.6541 97.1454 78.8491 93.4634 80.2653 89.4416L85.7033 90.4612C85.3068 91.4808 84.9952 92.2314 84.7687 92.7129H91.5662V97.5561ZM109.962 129.844L109.495 127.465C109.438 127.267 109.339 126.842 109.197 126.191L94.1577 128.4L93.7754 122.707C96.8343 122.367 99.1426 122.098 100.7 121.9V115.06H94.2002V96.7914H100.7V90.0364H105.799V96.7914H112.384V115.06H105.799V121.305L107.923 121.093L107.031 117.906L111.619 116.632C112.044 118.048 112.539 119.974 113.106 122.41C113.701 124.817 114.182 126.899 114.55 128.655L109.962 129.844ZM86.1282 97.5986H82.2621L80.7326 99.9777H84.1739L86.1282 97.5986ZM101.125 102.059H98.831V109.622H101.125V102.059ZM105.246 109.622H107.54V102.059H105.246V109.622ZM82.3046 104.821H80.3927V107.752H82.3046V104.821ZM86.1706 107.752H88.2524V104.821H86.1706V107.752ZM80.3927 114.677H82.3046V112.086H80.3927V113.36V114.677ZM86.1706 114.677H88.2524V112.086H86.1706V114.677ZM87.1903 124.491C87.8984 124.491 88.2524 124.052 88.2524 123.174V119.096H86.1706V124.406C86.6238 124.463 86.9637 124.491 87.1903 124.491ZM132.734 113.828C133.357 115.046 134.164 116.816 135.155 119.138C136.175 121.432 137.039 123.472 137.747 125.256L132.649 127.508C132.309 126.516 131.757 125.029 130.992 123.047C127.621 124.463 125.072 125.568 123.345 126.361L121.858 127.04L120.116 127.848L117.142 122.919C117.737 122.523 118.105 122.112 118.246 121.687C118.416 121.263 118.501 120.71 118.501 120.03V91.3534H136.217V112.851H123.854V120.158C124.987 119.676 125.979 119.237 126.828 118.841L128.868 117.949L127.806 115.612L132.734 113.828ZM138.427 91.9057H154.953V118.034C154.953 120.101 154.542 121.588 153.721 122.495C152.928 123.401 151.682 123.854 149.982 123.854C148.34 123.854 146.938 123.783 145.776 123.642L144.629 117.779C145.762 117.977 146.768 118.076 147.646 118.076C148.269 118.076 148.694 117.935 148.92 117.651C149.147 117.34 149.26 116.83 149.26 116.122V97.896H144.035V129.462H138.427V91.9057ZM130.779 99.5954V96.5365H123.854V99.5954H130.779ZM123.854 104.651V107.667H130.779V104.651H123.854ZM196.333 129.887C190.725 128.159 186.094 126.077 182.441 123.642C180.628 124.69 178.56 125.681 176.238 126.616C173.915 127.579 171.154 128.584 167.953 129.632L165.872 125.086C164.994 126.106 164.031 127.154 162.983 128.23L159.159 122.367C162.076 119.875 164.526 117.042 166.509 113.87C168.492 110.67 170.078 107.044 171.267 102.994H161.793V97.8535C162.133 97.0888 162.501 95.9842 162.898 94.5397C163.323 93.0952 163.634 91.8632 163.832 90.8436L169.653 91.7782C169.398 92.7412 169.115 93.775 168.803 94.8796C168.492 95.9559 168.237 96.8197 168.038 97.4712H172.627C173.108 94.9221 173.462 92.5288 173.689 90.2913L179.764 90.7161C179.453 93.1519 179.113 95.4036 178.744 97.4712H188.771C187.185 96.2533 185.514 94.9929 183.758 93.69L187.284 89.569C188.105 90.1355 189.266 90.9852 190.768 92.1181C192.297 93.2227 193.43 94.0866 194.166 94.7097L191.915 97.4712H198.117V102.994H177.597C177.427 103.731 177.187 104.609 176.875 105.628H194.846V111.151C192.58 114.777 190.244 117.651 187.836 119.776C190.838 121.39 194.492 122.735 198.797 123.812L196.333 129.887ZM182.823 116.462C185.032 114.847 186.788 113.105 188.091 111.236H178.065C179.453 113.219 181.039 114.961 182.823 116.462ZM167.274 123.472C171.239 122.282 174.623 120.993 177.427 119.606C175.955 118.161 174.581 116.49 173.306 114.592C171.692 117.595 169.681 120.554 167.274 123.472Z" fill="black"/>
<defs>
<linearGradient id="paint0_linear_39_367" x1="30.3459" y1="225.18" x2="264.346" y2="225.18" gradientUnits="userSpaceOnUse">
<stop stop-color="#FFE500"/>
<stop offset="1" stop-color="#FF9B9B"/>
</linearGradient>
</defs>
</svg>
