<svg width="383" height="134" viewBox="0 0 383 134" fill="none" xmlns="http://www.w3.org/2000/svg">
<rect width="382.968" height="133.523" rx="30.3461" fill="white"/>
<g clip-path="url(#clip0_39_160)">
<path d="M315.643 56.586L307.432 68.216L294.276 71.8967L304.875 79.6251L307.462 93.0951L315.673 81.4651L328.83 77.7844L318.23 70.056" fill="#4625FF"/>
<path d="M332.734 31.9823C339.91 36.9056 339.957 45.239 333.382 55.0415C326.854 64.7746 313.969 75.6526 296.234 85.3298C278.5 95.0069 259.369 101.599 242.82 104.458C226.154 107.338 212.628 106.36 205.451 101.437C198.275 96.5132 198.229 88.1797 204.803 78.3773C211.331 68.6444 224.216 57.7666 241.95 48.0895C259.685 38.4122 278.817 31.8196 295.365 28.9605C312.031 26.0812 325.557 27.059 332.734 31.9823Z" stroke="#4625FF" stroke-width="2.21873"/>
<path d="M76.8853 60.9815L97.5133 89.7015H85.11L69.9872 68.3439L63.3544 75.441V89.7015H53.7369V41.1495H63.3544V63.7673L83.5181 41.1495H95.5235L76.8853 60.9815ZM106.679 50.966C105.22 50.966 103.937 50.4133 102.832 49.3078C101.771 48.1581 101.24 46.8316 101.24 45.3282C101.24 43.7805 101.771 42.4539 102.832 41.3485C103.893 40.243 105.176 39.6903 106.679 39.6903C108.182 39.6903 109.487 40.2651 110.592 41.4148C111.698 42.5203 112.251 43.8247 112.251 45.3282C112.251 46.8316 111.698 48.1581 110.592 49.3078C109.487 50.4133 108.182 50.966 106.679 50.966ZM111.388 89.7015H102.169V55.3437H111.388V89.7015ZM129.136 89.7015H119.917V39.226H129.136V89.7015ZM135.675 72.5226C135.675 68.9409 136.471 65.7793 138.062 63.0377C139.699 60.2962 141.865 58.1958 144.563 56.7366C147.26 55.2331 150.178 54.4814 153.318 54.4814C156.413 54.4814 159.287 55.2331 161.941 56.7366C164.638 58.1958 166.782 60.2962 168.374 63.0377C170.01 65.7793 170.828 68.9409 170.828 72.5226C170.828 76.1043 170.01 79.2659 168.374 82.0075C166.782 84.7491 164.638 86.8494 161.941 88.3087C159.287 89.7679 156.413 90.4975 153.318 90.4975C150.178 90.4975 147.26 89.7679 144.563 88.3087C141.865 86.8494 139.699 84.7491 138.062 82.0075C136.471 79.2659 135.675 76.1043 135.675 72.5226ZM145.226 72.5226C145.226 75.5737 145.978 78.0057 147.481 79.8187C149.029 81.5874 150.952 82.4718 153.252 82.4718C155.551 82.4718 157.452 81.5874 158.956 79.8187C160.459 78.0057 161.211 75.5737 161.211 72.5226C161.211 69.4715 160.459 67.0395 158.956 65.2265C157.452 63.4136 155.551 62.5071 153.252 62.5071C150.952 62.5071 149.029 63.4136 147.481 65.2265C145.978 67.0395 145.226 69.4715 145.226 72.5226ZM198.128 69.0736L211.991 89.7015H200.914L191.893 76.038L186.72 81.7422V89.7015H177.5V39.226H186.72V70.5328L199.786 55.3437H210.465L198.128 69.0736ZM220.551 50.966C219.091 50.966 217.809 50.4133 216.704 49.3078C215.642 48.1581 215.112 46.8316 215.112 45.3282C215.112 43.7805 215.642 42.4539 216.704 41.3485C217.765 40.243 219.047 39.6903 220.551 39.6903C222.054 39.6903 223.358 40.2651 224.464 41.4148C225.569 42.5203 226.122 43.8247 226.122 45.3282C226.122 46.8316 225.569 48.1581 224.464 49.3078C223.358 50.4133 222.054 50.966 220.551 50.966ZM225.26 89.7015H216.04V55.3437H225.26V89.7015ZM257.666 87.7117C255.411 89.5689 252.272 90.4975 248.248 90.4975C244.533 90.4975 241.526 89.5247 239.227 87.579C236.972 85.5892 235.844 82.0517 235.844 76.9666V63.104H229.742V55.3437H235.844V44.7975H245.064V55.3437H255.411V63.104H245.064V75.441C245.064 77.7404 245.462 79.487 246.258 80.6809C247.054 81.8748 248.336 82.4718 250.105 82.4718C251.653 82.4718 253.112 82.0075 254.482 81.0789L257.666 87.7117ZM276.508 54.4814C279.559 54.4814 282.256 55.1668 284.6 56.5376C286.987 57.8641 288.822 59.7655 290.105 62.2418C291.431 64.6738 292.095 67.4817 292.095 70.6654C292.095 72.0804 291.962 73.5175 291.697 74.9767H268.88C269.278 77.5414 270.206 79.487 271.666 80.8136C273.125 82.0959 274.938 82.7371 277.104 82.7371C278.652 82.7371 280.023 82.4055 281.217 81.7422C282.455 81.0347 283.406 79.9956 284.069 78.6248L290.834 82.6044C289.906 85.1249 288.115 87.0705 285.462 88.4413C282.853 89.8121 279.934 90.4975 276.707 90.4975C273.611 90.4975 270.737 89.8121 268.084 88.4413C265.431 87.0705 263.286 85.0144 261.65 82.2728C260.058 79.5313 259.262 76.237 259.262 72.3899C259.262 68.5871 260.058 65.3371 261.65 62.6397C263.286 59.9424 265.409 57.9084 268.018 56.5376C270.626 55.1668 273.456 54.4814 276.508 54.4814ZM276.242 61.9765C274.429 61.9765 272.882 62.5513 271.599 63.701C270.317 64.8507 269.455 66.4647 269.012 68.5429H282.676C282.499 66.4204 281.814 64.8065 280.62 63.701C279.47 62.5513 278.011 61.9765 276.242 61.9765Z" fill="black"/>
</g>
<defs>
<clipPath id="clip0_39_160">
<rect width="309.53" height="82.3572" fill="white" transform="translate(37.0222 25.4907)"/>
</clipPath>
</defs>
</svg>
