<svg width="233" height="132" viewBox="0 0 233 132" fill="none" xmlns="http://www.w3.org/2000/svg">
<rect width="233" height="132" rx="30.3461" fill="#FF6C6C"/>
<path d="M65.592 50.784C65.304 50.336 65.16 49.712 65.16 48.912C65.096 47.408 64.328 46.176 62.856 45.216C62.504 44.992 62.328 44.832 62.328 44.736C62.328 44.608 62.776 44.544 63.672 44.544C69.272 44.544 72.072 45.824 72.072 48.384C72.072 49.376 71.64 50.176 70.776 50.784H79.224C80.216 49.184 80.856 48.192 81.144 47.808C81.464 47.424 81.736 47.232 81.96 47.232C82.344 47.232 83.368 47.92 85.032 49.296C86.728 50.64 87.576 51.488 87.576 51.84C87.576 52.192 87.256 52.368 86.616 52.368H76.248C77.24 52.688 78.12 53.056 78.888 53.472C79.656 53.856 80.04 54.208 80.04 54.528C80.04 54.88 79.784 55.056 79.272 55.056C78.76 55.056 78.216 55.28 77.64 55.728C77.064 56.176 75.848 57.296 73.992 59.088H83.4C84.616 57.168 85.352 56.064 85.608 55.776C85.896 55.488 86.184 55.344 86.472 55.344C86.792 55.344 87.288 55.648 87.96 56.256L90.504 58.416C91.496 59.248 91.992 59.84 91.992 60.192C91.992 60.512 91.672 60.672 91.032 60.672H49.224C48.584 60.672 48.008 60.848 47.496 61.2L46.248 58.944C47.016 59.04 47.816 59.088 48.648 59.088H60.552C60.04 58.832 59.752 58.208 59.688 57.216C59.624 56.192 59.368 55.328 58.92 54.624C58.504 53.888 57.864 53.136 57 52.368H51.384C50.744 52.368 50.168 52.544 49.656 52.896L48.408 50.64C49.176 50.736 49.976 50.784 50.808 50.784H65.592ZM72.696 52.368H60.744C62.28 52.816 63.448 53.408 64.248 54.144C65.08 54.848 65.496 55.6 65.496 56.4C65.496 57.648 64.984 58.544 63.96 59.088H71.112C71.848 56.912 72.376 54.672 72.696 52.368ZM59.304 73.776C59.336 73.936 59.352 74.128 59.352 74.352C59.352 74.576 59.208 74.768 58.92 74.928C58.632 75.088 58.2 75.248 57.624 75.408C60.376 75.664 62.136 75.92 62.904 76.176C63.704 76.4 64.104 76.64 64.104 76.896C64.104 77.152 63.784 77.408 63.144 77.664V81.552C63.144 82.288 63.192 82.816 63.288 83.136C63.384 83.456 63.544 83.68 63.768 83.808C64.024 83.904 64.712 83.984 65.832 84.048C66.984 84.144 68.28 84.192 69.72 84.192C71.192 84.192 72.344 84.064 73.176 83.808C74.04 83.552 74.664 83.072 75.048 82.368C75.432 81.632 75.896 80.272 76.44 78.288C76.632 77.584 76.808 77.232 76.968 77.232C77.128 77.232 77.256 77.84 77.352 79.056C77.48 80.24 77.72 81.184 78.072 81.888C78.424 82.592 78.968 83.232 79.704 83.808C80.44 84.384 80.808 84.96 80.808 85.536C80.808 86.464 79.944 87.232 78.216 87.84C76.52 88.48 73.512 88.8 69.192 88.8C67.56 88.8 65.624 88.736 63.384 88.608C61.176 88.48 59.672 88.096 58.872 87.456C58.072 86.816 57.672 85.456 57.672 83.376V79.248C57.672 77.968 57.624 76.704 57.528 75.456C56.376 75.68 55.208 75.792 54.024 75.792C53.672 75.792 53.496 75.664 53.496 75.408L53.592 73.296C53.656 72.336 53.688 71.456 53.688 70.656V65.472C53.688 64.064 53.64 62.672 53.544 61.296C56.2 61.776 58.232 62.304 59.64 62.88H76.344C76.856 62.112 77.192 61.632 77.352 61.44C77.544 61.248 77.736 61.152 77.928 61.152C78.216 61.152 79.096 61.456 80.568 62.064C82.04 62.672 83.016 63.136 83.496 63.456C84.008 63.776 84.264 64.112 84.264 64.464C84.264 64.816 83.8 65.12 82.872 65.376V69.408C82.872 70.816 82.888 71.808 82.92 72.384L82.968 74.016C82.968 74.272 82.808 74.496 82.488 74.688C82.2 74.848 81.368 75.104 79.992 75.456C78.648 75.808 77.72 75.984 77.208 75.984C76.888 75.984 76.728 75.616 76.728 74.88V73.776H59.304ZM59.304 67.536H76.728V64.464H60.072C59.944 64.72 59.688 64.912 59.304 65.04V67.536ZM76.728 69.12H59.304V72.192H76.728V69.12ZM64.872 74.544C67.176 74.544 69.112 74.896 70.68 75.6C72.248 76.304 73.032 77.488 73.032 79.152C73.032 80.016 72.712 80.752 72.072 81.36C71.464 81.968 70.68 82.272 69.72 82.272C68.312 82.272 67.512 81.6 67.32 80.256C67.128 78.912 66.872 77.888 66.552 77.184C66.232 76.448 65.752 75.888 65.112 75.504C64.504 75.088 64.2 74.832 64.2 74.736C64.2 74.608 64.424 74.544 64.872 74.544ZM51.912 76.416C52.168 76.416 52.728 77.088 53.592 78.432C54.456 79.776 54.888 81.216 54.888 82.752C54.888 84.288 54.456 85.504 53.592 86.4C52.76 87.328 51.752 87.792 50.568 87.792C49.704 87.792 48.92 87.552 48.216 87.072C47.544 86.592 47.208 85.92 47.208 85.056C47.208 84.224 47.624 83.504 48.456 82.896C49.32 82.288 50.008 81.68 50.52 81.072C51.032 80.464 51.352 79.888 51.48 79.344C51.64 78.8 51.72 78.016 51.72 76.992C51.72 76.608 51.784 76.416 51.912 76.416ZM80.04 76.896C80.424 76.896 81.368 77.056 82.872 77.376C84.408 77.696 85.72 78.176 86.808 78.816C87.928 79.424 88.76 80.144 89.304 80.976C89.88 81.808 90.168 82.72 90.168 83.712C90.168 84.672 89.784 85.488 89.016 86.16C88.248 86.864 87.432 87.216 86.568 87.216C85.704 87.216 85.112 87.056 84.792 86.736C84.472 86.448 84.232 85.952 84.072 85.248C83.688 83.424 83.272 82.064 82.824 81.168C82.376 80.24 81.512 79.072 80.232 77.664C79.912 77.312 79.752 77.104 79.752 77.04C79.752 76.944 79.848 76.896 80.04 76.896ZM108.36 47.712H123.72C124.488 46.208 124.968 45.328 125.16 45.072C125.384 44.784 125.624 44.64 125.88 44.64C126.296 44.64 127.528 45.312 129.576 46.656C131.624 47.968 132.648 48.832 132.648 49.248C132.648 49.632 132.04 50.08 130.824 50.592V67.248C130.824 68.752 130.84 69.792 130.872 70.368L130.92 72C130.92 72.288 130.76 72.56 130.44 72.816C130.12 73.04 129.544 73.264 128.712 73.488C127.88 73.712 127.112 73.824 126.408 73.824C125.704 73.824 125.224 73.68 124.968 73.392C124.712 73.104 124.584 72.784 124.584 72.432V49.296H109.08C108.92 49.552 108.648 49.776 108.264 49.968V71.472C108.264 72.624 107.8 73.408 106.872 73.824C105.944 74.24 104.92 74.448 103.8 74.448C103.48 74.448 103.144 74.336 102.792 74.112C102.44 73.888 102.264 73.664 102.264 73.44C102.264 73.408 102.296 72.736 102.36 71.424C102.424 70.08 102.456 68.56 102.456 66.864V50.448C102.456 48.688 102.392 47.024 102.264 45.456C104.376 46.064 106.408 46.816 108.36 47.712ZM116.808 72.72C115.56 76.272 113.656 79.12 111.096 81.264C108.568 83.408 105.368 85.168 101.496 86.544C97.656 87.92 95.416 88.608 94.776 88.608C94.488 88.608 94.344 88.512 94.344 88.32C94.344 88.16 94.568 87.984 95.016 87.792C100.04 85.744 103.784 83.6 106.248 81.36C108.712 79.12 110.472 76.336 111.528 73.008C112.616 69.648 113.16 64.784 113.16 58.416C113.16 56.848 113.128 55.088 113.064 53.136C114.792 53.296 116.376 53.504 117.816 53.76C119.256 54.016 120.104 54.24 120.36 54.432C120.616 54.624 120.744 54.864 120.744 55.152C120.744 55.408 120.52 55.632 120.072 55.824C119.656 56.016 119.416 56.624 119.352 57.648C119 61.808 118.648 64.832 118.296 66.72C120.44 66.944 121.784 67.152 122.328 67.344C122.872 67.504 123.144 67.744 123.144 68.064C123.144 68.384 122.904 68.704 122.424 69.024V80.304C122.424 80.688 122.504 81.04 122.664 81.36C122.856 81.648 123.08 81.872 123.336 82.032C123.592 82.16 124.184 82.272 125.112 82.368C126.04 82.432 126.968 82.464 127.896 82.464C130.456 82.464 132.056 82.208 132.696 81.696C133.336 81.184 133.928 80.24 134.472 78.864C135.048 77.488 135.656 75.584 136.296 73.152C136.392 72.8 136.536 72.624 136.728 72.624C136.984 72.624 137.064 72.848 136.968 73.296C136.744 74.672 136.632 75.904 136.632 76.992C136.632 80.032 137.352 81.76 138.792 82.176C139.464 82.368 139.8 82.704 139.8 83.184C139.8 83.664 139.464 84.352 138.792 85.248C138.12 86.144 136.904 86.752 135.144 87.072C133.416 87.392 131 87.552 127.896 87.552C124.792 87.552 122.52 87.44 121.08 87.216C119.64 86.992 118.568 86.48 117.864 85.68C117.16 84.88 116.808 83.664 116.808 82.032V72.72ZM172.824 50.784H179.976C180.392 49.888 180.824 49.056 181.272 48.288C181.72 47.52 181.992 47.088 182.088 46.992C182.216 46.864 182.36 46.8 182.52 46.8C182.904 46.8 183.96 47.536 185.688 49.008C187.448 50.448 188.328 51.376 188.328 51.792C188.328 52.176 187.976 52.368 187.272 52.368H176.136C178.44 53.2 179.592 54.48 179.592 56.208C179.592 57.104 179.288 57.824 178.68 58.368C178.072 58.912 177.256 59.184 176.232 59.184C175.784 59.184 175.32 58.944 174.84 58.464C174.392 57.984 174.168 57.456 174.168 56.88C174.168 55.408 174.072 54.416 173.88 53.904C173.72 53.36 173.416 52.848 172.968 52.368H171.72C169.928 54.736 168.024 56.656 166.008 58.128C164.024 59.568 162.856 60.288 162.504 60.288C162.44 60.288 162.408 60.272 162.408 60.24C162.408 60.112 162.584 59.84 162.936 59.424C164.504 57.536 165.864 55.216 167.016 52.464H158.472C160.616 53.36 161.688 54.528 161.688 55.968C161.688 56.832 161.368 57.584 160.728 58.224C160.088 58.864 159.368 59.184 158.568 59.184C157.8 59.184 157.24 58.992 156.888 58.608C156.536 58.192 156.344 57.504 156.312 56.544C156.312 55.584 156.184 54.8 155.928 54.192C155.672 53.552 155.24 52.976 154.632 52.464H153.24C151.672 54.352 150.216 55.904 148.872 57.12C147.528 58.336 146.2 59.36 144.888 60.192C143.608 61.024 142.968 61.36 142.968 61.2C142.968 61.136 143.176 60.864 143.592 60.384C147.112 56.256 149.48 50.896 150.696 44.304C152.68 44.624 154.36 44.96 155.736 45.312C157.144 45.664 157.944 45.904 158.136 46.032C158.36 46.16 158.472 46.304 158.472 46.464C158.472 46.72 158.28 46.912 157.896 47.04C157.544 47.136 157.24 47.312 156.984 47.568C156.76 47.824 155.928 48.928 154.488 50.88H160.824C161.08 50.4 161.48 49.728 162.024 48.864C162.6 48 162.92 47.536 162.984 47.472C163.08 47.376 163.192 47.328 163.32 47.328C163.448 47.328 163.608 47.408 163.8 47.568C164.024 47.728 164.504 48.144 165.24 48.816C165.976 49.456 166.744 50.192 167.544 51.024C168.312 48.88 168.904 46.576 169.32 44.112C171.144 44.4 172.728 44.72 174.072 45.072C175.416 45.392 176.168 45.616 176.328 45.744C176.488 45.872 176.568 46.048 176.568 46.272C176.568 46.496 176.392 46.672 176.04 46.8C175.72 46.928 175.384 47.2 175.032 47.616C174.712 48.032 173.976 49.088 172.824 50.784ZM157.128 64.704H158.52C159.544 62.944 160.136 61.968 160.296 61.776C160.456 61.552 160.664 61.44 160.92 61.44C161.208 61.44 162.008 62.064 163.32 63.312C164.664 64.56 165.336 65.376 165.336 65.76C165.336 66.112 165.128 66.288 164.712 66.288H157.128V69.936C159.976 70.224 161.88 70.704 162.84 71.376C163.832 72.048 164.328 73.12 164.328 74.592C164.328 75.392 164.04 76.064 163.464 76.608C162.888 77.152 162.184 77.424 161.352 77.424C160.328 77.424 159.704 76.768 159.48 75.456C159.16 73.152 158.376 71.616 157.128 70.848V87.552C157.128 87.808 157.016 88.032 156.792 88.224C156.6 88.416 156.136 88.608 155.4 88.8C154.696 88.992 154.008 89.088 153.336 89.088C152.664 89.088 152.248 89.04 152.088 88.944C151.96 88.88 151.896 88.736 151.896 88.512L151.992 86.544C152.024 85.2 152.04 83.712 152.04 82.08V74.976C151.272 76.064 150.264 77.232 149.016 78.48C147.8 79.728 146.44 80.976 144.936 82.224C143.464 83.44 142.616 84.112 142.392 84.24C142.2 84.368 142.056 84.432 141.96 84.432C141.896 84.432 141.864 84.368 141.864 84.24C141.864 84.144 141.992 83.952 142.248 83.664C146.056 79.408 148.936 73.616 150.888 66.288H146.28C145.64 66.288 145.064 66.464 144.552 66.816L143.112 64.56C143.88 64.656 144.68 64.704 145.512 64.704H152.04V64.08C152.04 61.968 151.992 60.144 151.896 58.608C153.24 58.64 154.488 58.72 155.64 58.848C156.792 58.976 157.48 59.12 157.704 59.28C157.96 59.408 158.088 59.568 158.088 59.76C158.088 60.144 157.768 60.448 157.128 60.672V64.704ZM171.144 60.96H178.008C178.616 59.872 179.032 59.232 179.256 59.04C179.48 58.848 179.768 58.752 180.12 58.752C180.728 58.752 181.864 59.376 183.528 60.624C185.192 61.84 186.024 62.656 186.024 63.072C186.024 63.456 185.544 63.808 184.584 64.128V82.176C184.584 83.68 184.6 84.72 184.632 85.296L184.68 86.928C184.68 87.44 184.168 87.872 183.144 88.224C182.152 88.576 181.24 88.752 180.408 88.752C179.576 88.752 179.048 88.704 178.824 88.608C178.632 88.544 178.536 88.304 178.536 87.888V85.392H171.144V87.168C171.144 87.456 171.048 87.68 170.856 87.84C170.664 88.032 170.136 88.24 169.272 88.464C168.44 88.688 167.656 88.8 166.92 88.8C166.184 88.8 165.736 88.768 165.576 88.704C165.416 88.64 165.336 88.528 165.336 88.368L165.432 86.112C165.496 84.544 165.528 83.12 165.528 81.84V64.32C165.528 62.368 165.496 60.704 165.432 59.328C167.512 59.808 169.416 60.352 171.144 60.96ZM171.144 68.64H178.536V62.544H171.912C171.816 63.024 171.56 63.344 171.144 63.504V68.64ZM178.536 70.224H171.144V76.176H178.536V70.224ZM178.536 83.808V77.76H171.144V83.808H178.536Z" fill="#FFE500"/>
</svg>
