<svg width="383" height="134" viewBox="0 0 383 134" fill="none" xmlns="http://www.w3.org/2000/svg">
<rect width="382.968" height="133.523" rx="30.3461" fill="white"/>
<path d="M89.7032 44.347V50.2341L70.4637 79.5485H90.5529V88.7737H56.019V82.8865L75.3798 53.5115H57.9004V44.347H89.7032ZM92.6832 66.4996C92.6832 61.8061 93.6341 57.7195 95.5358 54.2398C97.4779 50.7601 100.108 48.1099 103.426 46.2891C106.744 44.4279 110.405 43.4973 114.411 43.4973C118.417 43.4973 122.058 44.4279 125.336 46.2891C128.653 48.1099 131.283 50.7601 133.226 54.2398C135.168 57.7195 136.139 61.8061 136.139 66.4996C136.139 71.2336 135.168 75.3405 133.226 78.8202C131.283 82.2998 128.653 84.9703 125.336 86.8315C122.058 88.6523 118.417 89.5627 114.411 89.5627C110.365 89.5627 106.683 88.6523 103.365 86.8315C100.088 84.9703 97.4779 82.2998 95.5358 78.8202C93.6341 75.3405 92.6832 71.2336 92.6832 66.4996ZM103.669 66.4996C103.669 69.2106 104.114 71.5978 105.004 73.6613C105.934 75.7249 107.209 77.3231 108.827 78.456C110.446 79.5485 112.307 80.0947 114.411 80.0947C116.515 80.0947 118.376 79.5485 119.995 78.456C121.654 77.3231 122.928 75.7249 123.818 73.6613C124.749 71.5978 125.214 69.2106 125.214 66.4996C125.214 63.8292 124.749 61.4824 123.818 59.4593C122.928 57.3958 121.654 55.8178 119.995 54.7253C118.376 53.5924 116.515 53.026 114.411 53.026C112.307 53.026 110.446 53.5924 108.827 54.7253C107.209 55.8178 105.934 57.3958 105.004 59.4593C104.114 61.4824 103.669 63.8292 103.669 66.4996ZM162.297 80.034C166.302 80.034 169.216 77.93 171.036 73.722L179.715 78.8202C179.068 80.7623 177.955 82.5628 176.377 84.2218C174.799 85.8402 172.817 87.135 170.43 88.1061C168.083 89.0771 165.453 89.5627 162.54 89.5627C158.534 89.5627 154.872 88.6118 151.554 86.7101C148.236 84.8085 145.606 82.1178 143.664 78.6381C141.722 75.1179 140.751 71.0718 140.751 66.4996C140.751 61.9275 141.722 57.9016 143.664 54.4219C145.606 50.9422 148.236 48.2515 151.554 46.3498C154.872 44.4481 158.534 43.4973 162.54 43.4973C165.453 43.4973 168.083 43.9828 170.43 44.9539C172.817 45.925 174.799 47.24 176.377 48.8989C177.955 50.5174 179.068 52.2977 179.715 54.2398L171.036 59.338C169.216 55.13 166.302 53.026 162.297 53.026C160.314 53.026 158.514 53.5722 156.895 54.6647C155.317 55.7167 154.043 57.2744 153.072 59.338C152.141 61.361 151.676 63.7483 151.676 66.4996C151.676 69.251 152.141 71.6585 153.072 73.722C154.043 75.7855 155.317 77.3635 156.895 78.456C158.514 79.508 160.314 80.034 162.297 80.034ZM215.968 75.7249C215.968 79.0022 215.098 81.6727 213.358 83.7362C211.658 85.7998 209.514 87.2968 206.924 88.2275C204.335 89.1176 201.685 89.5627 198.974 89.5627C194.887 89.5627 191.145 88.6321 187.746 86.7708C184.347 84.8691 182.081 82.138 180.948 78.5774L189.324 73.7827C190.214 75.8462 191.509 77.4445 193.208 78.5774C194.948 79.7103 196.991 80.2768 199.338 80.2768C201.078 80.2768 202.474 79.9531 203.526 79.3057C204.618 78.6179 205.164 77.6265 205.164 76.3318C205.164 75.2798 204.8 74.4099 204.072 73.722C203.344 73.0342 202.433 72.4677 201.341 72.0226C200.248 71.5776 198.711 71.0718 196.728 70.5053C193.815 69.6556 191.428 68.8059 189.567 67.9563C187.746 67.1066 186.168 65.832 184.833 64.1326C183.497 62.3928 182.83 60.127 182.83 57.3351C182.83 54.26 183.619 51.6907 185.197 49.6272C186.815 47.5637 188.899 46.0261 191.448 45.0146C194.038 44.0031 196.809 43.4973 199.763 43.4973C203.647 43.4973 207.046 44.3874 209.959 46.1677C212.872 47.948 214.754 50.4769 215.603 53.7543L207.107 58.549C206.459 56.7282 205.448 55.312 204.072 54.3005C202.737 53.289 201.098 52.7832 199.156 52.7832C197.497 52.7832 196.141 53.1676 195.089 53.9364C194.078 54.7051 193.572 55.6964 193.572 56.9103C193.572 57.8409 193.916 58.6299 194.604 59.2773C195.332 59.9246 196.222 60.4506 197.274 60.8553C198.326 61.2599 199.823 61.7656 201.766 62.3726C204.76 63.2627 207.187 64.1529 209.049 65.043C210.91 65.8927 212.528 67.1875 213.904 68.9273C215.28 70.6672 215.968 72.933 215.968 75.7249ZM259.884 88.7737L247.563 88.713L237.731 73.722H237.428H231.844V88.7737H221.465V44.347H237.61C241.292 44.347 244.488 44.9539 247.199 46.1677C249.95 47.3816 252.054 49.1012 253.511 51.3266C254.968 53.552 255.696 56.1213 255.696 59.0345C255.696 61.8263 255.028 64.2945 253.693 66.4389C252.358 68.5834 250.436 70.2828 247.927 71.5371L259.884 88.7737ZM231.844 53.0867V65.043H236.396C238.702 65.043 240.664 64.5979 242.283 63.7078C243.942 62.7772 244.771 61.2194 244.771 59.0345C244.771 55.0693 241.979 53.0867 236.396 53.0867H231.844ZM280.281 44.347C284.61 44.347 288.535 45.2169 292.055 46.9567C295.575 48.6966 298.347 51.2457 300.37 54.604C302.434 57.9218 303.465 61.887 303.465 66.4996C303.465 71.1122 302.434 75.0977 300.37 78.456C298.347 81.8143 295.575 84.3836 292.055 86.1639C288.576 87.9038 284.651 88.7737 280.281 88.7737H264.258V44.347H280.281ZM279.128 80.034C283.538 80.034 286.876 78.8606 289.142 76.5139C291.408 74.1671 292.541 70.829 292.541 66.4996C292.541 62.2107 291.388 58.9131 289.081 56.6068C286.816 54.26 283.498 53.0867 279.128 53.0867H274.637V80.034H279.128Z" fill="black"/>
<path d="M319.93 73.0149L328.466 43.1003L338.36 46.4316L327.12 75.4358L319.93 73.0149ZM318.422 89.2856C316.927 88.7821 315.823 87.8127 315.111 86.3774C314.45 84.9168 314.371 83.4387 314.875 81.9432C315.391 80.4094 316.348 79.2799 317.745 78.5549C319.193 77.8044 320.665 77.6809 322.16 78.1845C323.656 78.688 324.753 79.6766 325.452 81.1502C326.164 82.5854 326.262 84.0699 325.746 85.6038C325.242 87.0993 324.266 88.2222 322.818 88.9727C321.383 89.6849 319.918 89.7892 318.422 89.2856Z" fill="#FF70C6"/>
</svg>
