<svg width="564" height="151" viewBox="0 0 564 151" fill="none" xmlns="http://www.w3.org/2000/svg">
<g clip-path="url(#clip0_42_227)">
<path d="M538.821 11.8287C551.897 20.7995 551.983 35.9837 540.003 53.8447C528.108 71.5795 504.629 91.4003 472.315 109.033C440 126.667 405.14 138.679 374.987 143.889C344.62 149.135 319.974 147.353 306.897 138.382C293.821 129.412 293.735 114.227 305.715 96.3658C317.61 78.631 341.088 58.8102 373.403 41.1771C405.717 23.544 440.577 11.5311 470.73 6.32167C501.098 1.07516 525.744 2.85788 538.821 11.8287Z" stroke="#4625FF" stroke-width="4.04279"/>
<path d="M72.6352 63.6974L110.222 116.029H87.6215L60.066 77.1126L47.9803 90.0443V116.029H30.456V27.5611H47.9803V68.7734L84.7209 27.5611H106.596L72.6352 63.6974ZM126.923 45.448C124.264 45.448 121.927 44.4408 119.913 42.4266C117.979 40.3317 117.012 37.9146 117.012 35.1751C117.012 32.3551 117.979 29.938 119.913 27.9237C121.847 25.9094 124.183 24.9023 126.923 24.9023C129.662 24.9023 132.039 25.9497 134.053 28.0446C136.068 30.0588 137.075 32.4357 137.075 35.1751C137.075 37.9146 136.068 40.3317 134.053 42.4266C132.039 44.4408 129.662 45.448 126.923 45.448ZM135.504 116.029H118.704V53.4246H135.504V116.029ZM167.842 116.029H151.043V24.0563H167.842V116.029ZM179.756 84.7266C179.756 78.2003 181.206 72.4394 184.107 67.444C187.088 62.4486 191.036 58.6214 195.951 55.9626C200.866 53.2231 206.184 51.8534 211.904 51.8534C217.544 51.8534 222.781 53.2231 227.616 55.9626C232.53 58.6214 236.438 62.4486 239.339 67.444C242.32 72.4394 243.81 78.2003 243.81 84.7266C243.81 91.2528 242.32 97.0137 239.339 102.009C236.438 107.005 232.53 110.832 227.616 113.491C222.781 116.149 217.544 117.479 211.904 117.479C206.184 117.479 200.866 116.149 195.951 113.491C191.036 110.832 187.088 107.005 184.107 102.009C181.206 97.0137 179.756 91.2528 179.756 84.7266ZM197.16 84.7266C197.16 90.286 198.529 94.7174 201.269 98.0208C204.089 101.244 207.594 102.855 211.783 102.855C215.973 102.855 219.438 101.244 222.177 98.0208C224.916 94.7174 226.286 90.286 226.286 84.7266C226.286 79.1671 224.916 74.7357 222.177 71.4323C219.438 68.1288 215.973 66.4771 211.783 66.4771C207.594 66.4771 204.089 68.1288 201.269 71.4323C198.529 74.7357 197.16 79.1671 197.16 84.7266ZM293.554 78.442L318.813 116.029H298.63L282.193 91.132L272.766 101.526V116.029H255.967V24.0563H272.766V81.1008L296.575 53.4246H316.033L293.554 78.442ZM334.41 45.448C331.751 45.448 329.414 44.4408 327.4 42.4266C325.466 40.3317 324.5 37.9146 324.5 35.1751C324.5 32.3551 325.466 29.938 327.4 27.9237C329.334 25.9094 331.67 24.9023 334.41 24.9023C337.149 24.9023 339.526 25.9497 341.54 28.0446C343.555 30.0588 344.562 32.4357 344.562 35.1751C344.562 37.9146 343.555 40.3317 341.54 42.4266C339.526 44.4408 337.149 45.448 334.41 45.448ZM342.991 116.029H326.192V53.4246H342.991V116.029ZM402.039 112.403C397.93 115.787 392.209 117.479 384.877 117.479C378.109 117.479 372.63 115.706 368.441 112.161C364.331 108.535 362.277 102.09 362.277 92.824V67.5648H351.158V53.4246H362.277V34.2083H379.076V53.4246H397.93V67.5648H379.076V90.0443C379.076 94.234 379.801 97.4166 381.251 99.592C382.702 101.767 385.038 102.855 388.261 102.855C391.081 102.855 393.74 102.009 396.238 100.317L402.039 112.403ZM436.37 51.8534C441.929 51.8534 446.844 53.1023 451.114 55.6C455.465 58.0171 458.809 61.4817 461.146 65.9937C463.563 70.4251 464.771 75.5414 464.771 81.3426C464.771 83.9208 464.53 86.5394 464.046 89.1983H422.471C423.196 93.8714 424.888 97.4166 427.547 99.8337C430.206 102.17 433.51 103.339 437.458 103.339C440.278 103.339 442.775 102.734 444.951 101.526C447.207 100.237 448.939 98.3431 450.148 95.8454L462.475 103.097C460.783 107.689 457.52 111.235 452.686 113.732C447.932 116.23 442.614 117.479 436.732 117.479C431.092 117.479 425.855 116.23 421.021 113.732C416.187 111.235 412.279 107.488 409.298 102.493C406.397 97.4971 404.947 91.4946 404.947 84.4848C404.947 77.5557 406.397 71.6337 409.298 66.7188C412.279 61.804 416.146 58.0977 420.9 55.6C425.654 53.1023 430.81 51.8534 436.37 51.8534ZM435.886 65.5103C432.583 65.5103 429.763 66.5577 427.426 68.6526C425.09 70.7474 423.519 73.6883 422.713 77.4751H447.61C447.287 73.6077 446.038 70.6668 443.863 68.6526C441.768 66.5577 439.109 65.5103 435.886 65.5103Z" fill="black"/>
</g>
<defs>
<clipPath id="clip0_42_227">
<rect width="564" height="150.064" fill="white"/>
</clipPath>
</defs>
</svg>
